<svg xmlns="http://www.w3.org/2000/svg" viewBox="0 0 32 32" fill="none">
  <!-- Back document -->
  <g opacity="0.4">
    <path d="M6 4h10l6 6v14a2 2 0 01-2 2H6a2 2 0 01-2-2V6a2 2 0 012-2z" fill="#8b5cf6"/>
    <path d="M16 4v4a2 2 0 002 2h4" fill="#8b5cf6" opacity="0.6"/>
  </g>
  <!-- Front document -->
  <g>
    <path d="M12 8h10l6 6v12a2 2 0 01-2 2H12a2 2 0 01-2-2V10a2 2 0 012-2z" fill="#8b5cf6"/>
    <path d="M22 8v4a2 2 0 002 2h4" fill="#a78bfa" opacity="0.8"/>
    <!-- Document lines -->
    <rect x="13" y="18" width="10" height="1.5" rx="0.75" fill="#ffffff" opacity="0.3"/>
    <rect x="13" y="21.5" width="8" height="1.5" rx="0.75" fill="#ffffff" opacity="0.3"/>
    <rect x="13" y="25" width="6" height="1.5" rx="0.75" fill="#ffffff" opacity="0.3"/>
  </g>
</svg>
