<svg xmlns="http://www.w3.org/2000/svg" viewBox="0 0 64 64" fill="none">
  <defs>
    <linearGradient id="bg-gradient" x1="0%" y1="0%" x2="100%" y2="100%">
      <stop offset="0%" style="stop-color:#c084fc"/>
      <stop offset="50%" style="stop-color:#a855f7"/>
      <stop offset="100%" style="stop-color:#7c3aed"/>
    </linearGradient>
  </defs>
  <!-- Rounded square background -->
  <rect x="0" y="0" width="64" height="64" rx="12" fill="url(#bg-gradient)"/>
  <!-- Back document -->
  <g opacity="0.6">
    <path d="M14 14h16l8 8v20a3 3 0 01-3 3H17a3 3 0 01-3-3V17a3 3 0 013-3z" fill="#ffffff"/>
    <path d="M30 14v6a2 2 0 002 2h6" fill="#ffffff" opacity="0.8"/>
  </g>
  <!-- Front document -->
  <g>
    <path d="M24 20h16l8 8v20a3 3 0 01-3 3H27a3 3 0 01-3-3V23a3 3 0 013-3z" fill="#ffffff"/>
    <path d="M40 20v6a2 2 0 002 2h6" fill="#ffffff" opacity="0.7"/>
    <!-- Document lines -->
    <rect x="28" y="34" width="14" height="2" rx="1" fill="#a855f7" opacity="0.4"/>
    <rect x="28" y="39" width="10" height="2" rx="1" fill="#a855f7" opacity="0.4"/>
    <rect x="28" y="44" width="12" height="2" rx="1" fill="#a855f7" opacity="0.4"/>
  </g>
</svg>
