<svg xmlns="http://www.w3.org/2000/svg" viewBox="0 0 32 32" fill="none">
  <defs>
    <linearGradient id="bg-gradient" x1="0%" y1="0%" x2="100%" y2="100%">
      <stop offset="0%" style="stop-color:#a78bfa"/>
      <stop offset="50%" style="stop-color:#8b5cf6"/>
      <stop offset="100%" style="stop-color:#7c3aed"/>
    </linearGradient>
  </defs>
  <rect x="0" y="0" width="32" height="32" rx="7" fill="url(#bg-gradient)"/>
  <g opacity="0.7">
    <path d="M6 8h7l3 3v9a1.5 1.5 0 01-1.5 1.5H7.5A1.5 1.5 0 016 20V9.5A1.5 1.5 0 017.5 8z" fill="#ffffff"/>
    <path d="M13 8v2.5a1 1 0 001 1h2.5" fill="#ffffff"/>
  </g>
  <g>
    <path d="M11 11h9l4 4v9a2 2 0 01-2 2H13a2 2 0 01-2-2V13a2 2 0 012-2z" fill="#ffffff"/>
    <path d="M20 11v3a1 1 0 001 1h3" fill="#ffffff" opacity="0.8"/>
  </g>
</svg>
